<?xml version="1.0" encoding="UTF-8" standalone="no"?>
<!-- Created with Inkscape (http://www.inkscape.org/) -->

<svg
   xmlns:dc="http://purl.org/dc/elements/1.1/"
   xmlns:cc="http://creativecommons.org/ns#"
   xmlns:rdf="http://www.w3.org/1999/02/22-rdf-syntax-ns#"
   xmlns:svg="http://www.w3.org/2000/svg"
   xmlns="http://www.w3.org/2000/svg"
   xmlns:sodipodi="http://sodipodi.sourceforge.net/DTD/sodipodi-0.dtd"
   xmlns:inkscape="http://www.inkscape.org/namespaces/inkscape"
   width="12.192mm"
   height="12.192mm"
   viewBox="0 0 43.200001 43.200001"
   id="svg4201"
   version="1.1"
   inkscape:version="0.91 r13725"
   sodipodi:docname="GG.svg">
  <defs
     id="defs4203">
    <filter
       style="color-interpolation-filters:sRGB"
       inkscape:label="Drop Shadow"
       id="filter4489">
      <feFlood
         flood-opacity="0.498039"
         flood-color="rgb(0,0,0)"
         result="flood"
         id="feFlood4491" />
      <feComposite
         in="flood"
         in2="SourceGraphic"
         operator="in"
         result="composite1"
         id="feComposite4493" />
      <feGaussianBlur
         in="composite1"
         stdDeviation="1"
         result="blur"
         id="feGaussianBlur4495" />
      <feOffset
         dx="1.94289e-016"
         dy="0"
         result="offset"
         id="feOffset4497" />
      <feComposite
         in="SourceGraphic"
         in2="offset"
         operator="over"
         result="composite2"
         id="feComposite4499" />
    </filter>
    <filter
       style="color-interpolation-filters:sRGB"
       inkscape:label="Drop Shadow"
       id="filter4477">
      <feFlood
         flood-opacity="0.498039"
         flood-color="rgb(0,0,0)"
         result="flood"
         id="feFlood4479" />
      <feComposite
         in="flood"
         in2="SourceGraphic"
         operator="in"
         result="composite1"
         id="feComposite4481" />
      <feGaussianBlur
         in="composite1"
         stdDeviation="0.5"
         result="blur"
         id="feGaussianBlur4483" />
      <feOffset
         dx="1.94289e-016"
         dy="0"
         result="offset"
         id="feOffset4485" />
      <feComposite
         in="SourceGraphic"
         in2="offset"
         operator="over"
         result="composite2"
         id="feComposite4487" />
    </filter>
  </defs>
  <sodipodi:namedview
     id="base"
     pagecolor="#ffffff"
     bordercolor="#666666"
     borderopacity="1.0"
     inkscape:pageopacity="0.0"
     inkscape:pageshadow="2"
     inkscape:zoom="7.9195959"
     inkscape:cx="30.302915"
     inkscape:cy="22.405564"
     inkscape:document-units="px"
     inkscape:current-layer="layer1"
     showgrid="false"
     fit-margin-top="0"
     fit-margin-left="0"
     fit-margin-right="0"
     fit-margin-bottom="0"
     inkscape:window-width="1280"
     inkscape:window-height="657"
     inkscape:window-x="-8"
     inkscape:window-y="-8"
     inkscape:window-maximized="1" />
  <metadata
     id="metadata4206">
    <rdf:RDF>
      <cc:Work
         rdf:about="">
        <dc:format>image/svg+xml</dc:format>
        <dc:type
           rdf:resource="http://purl.org/dc/dcmitype/StillImage" />
        <dc:title></dc:title>
      </cc:Work>
    </rdf:RDF>
  </metadata>
  <g
     inkscape:label="Layer 1"
     inkscape:groupmode="layer"
     id="layer1"
     transform="translate(-204.11429,-562.19078)">
    <path
       style="display:inline;fill:#199d72;fill-opacity:1;stroke:none;filter:url(#filter4477)"
       d="m 211.71429,565.79078 c -2.2,0 -4,1.8 -4,4 l 0,28 c 0,2.2 1.8,4 4,4 l 28,0 c 2.2,0 4,-1.8 4,-4 l 0,-28 c 0,-2.2 -1.8,-4 -4,-4 l -28,0 z m 17.4121,9.79492 9.84375,0 3.28125,3.28125 0,9.84375 -3.28125,3.28125 -9.84375,0 -3.28125,-3.28125 0,-6.5625 6.5625,0 3.28125,3.28125 -6.5625,0 0,3.28125 9.84375,0 0,-9.84375 -13.125,0 3.28125,-3.28125 z m -16.66796,0.004 9.84375,0 3.28125,3.28125 -13.125,0 0,9.84375 9.84375,0 0,-3.28125 -6.5625,0 3.28125,-3.28125 6.5625,0 0,6.5625 -3.28125,3.28125 -9.84375,0 -3.28125,-3.28125 0,-9.84375 3.28125,-3.28125 z"
       id="path4"
       inkscape:connector-curvature="0"
       inkscape:export-xdpi="937.5"
       inkscape:export-ydpi="937.5" />
    <g
       transform="translate(201.71429,559.79078)"
       style="display:inline;fill:#0c3943;fill-opacity:1;stroke:none;filter:url(#filter4489)"
       id="g6"
       inkscape:export-xdpi="937.5"
       inkscape:export-ydpi="937.5">
      <path
         d="m 6.6,8 6,6 c -0.4,0.6 -0.6,1.3 -0.6,2 0,2.2 1.8,4 4,4 2.2,0 4,-1.8 4,-4 0,-2.2 -1.8,-4 -4,-4 -0.7,0 -1.4,0.2 -2,0.6 L 8,6.6 C 7.4,6.9 6.9,7.4 6.6,8 Z m 9.4,6.5 c 0.8,0 1.5,0.7 1.5,1.5 0,0.8 -0.7,1.5 -1.5,1.5 -0.8,0 -1.5,-0.7 -1.5,-1.5 0,-0.8 0.7,-1.5 1.5,-1.5 z"
         id="path8"
         inkscape:connector-curvature="0"
         style="fill:#0c3943;fill-opacity:1;stroke:none" />
      <path
         d="m 41.4,40 -6,-6 c 0.4,-0.6 0.6,-1.3 0.6,-2 0,-2.2 -1.8,-4 -4,-4 -2.2,0 -4,1.8 -4,4 0,2.2 1.8,4 4,4 0.7,0 1.4,-0.2 2,-0.6 l 6,6 c 0.6,-0.3 1.1,-0.8 1.4,-1.4 z M 32,33.5 c -0.8,0 -1.5,-0.7 -1.5,-1.5 0,-0.8 0.7,-1.5 1.5,-1.5 0.8,0 1.5,0.7 1.5,1.5 0,0.8 -0.7,1.5 -1.5,1.5 z"
         id="path10"
         inkscape:connector-curvature="0"
         style="fill:#0c3943;fill-opacity:1;stroke:none" />
      <path
         d="m 16,36 c 2.2,0 4,-1.8 4,-4 0,-0.7 -0.2,-1.4 -0.6,-2 L 30,19.4 c 0.6,0.4 1.3,0.6 2,0.6 2.2,0 4,-1.8 4,-4 0,-2.2 -1.8,-4 -4,-4 -2.2,0 -4,1.8 -4,4 0,0.7 0.2,1.4 0.6,2 L 18,28.6 C 17.4,28.2 16.7,28 16,28 c -2.2,0 -4,1.8 -4,4 0,2.2 1.8,4 4,4 z M 32,14.5 c 0.8,0 1.5,0.7 1.5,1.5 0,0.8 -0.7,1.5 -1.5,1.5 -0.8,0 -1.5,-0.7 -1.5,-1.5 0,-0.8 0.7,-1.5 1.5,-1.5 z m -16,16 c 0.8,0 1.5,0.7 1.5,1.5 0,0.8 -0.7,1.5 -1.5,1.5 -0.8,0 -1.5,-0.7 -1.5,-1.5 0,-0.8 0.7,-1.5 1.5,-1.5 z"
         id="path12"
         inkscape:connector-curvature="0"
         style="fill:#0c3943;fill-opacity:1;stroke:none" />
    </g>
  </g>
</svg>
