<?xml version="1.0" encoding="UTF-8" standalone="no"?>
<!-- Generator: Adobe Illustrator 18.0.0, SVG Export Plug-In . SVG Version: 6.00 Build 0)  -->

<svg
   xmlns:dc="http://purl.org/dc/elements/1.1/"
   xmlns:cc="http://creativecommons.org/ns#"
   xmlns:rdf="http://www.w3.org/1999/02/22-rdf-syntax-ns#"
   xmlns:svg="http://www.w3.org/2000/svg"
   xmlns="http://www.w3.org/2000/svg"
   xmlns:sodipodi="http://sodipodi.sourceforge.net/DTD/sodipodi-0.dtd"
   xmlns:inkscape="http://www.inkscape.org/namespaces/inkscape"
   version="1.1"
   x="0px"
   y="0px"
   viewBox="0 0 48 48"
   style="enable-background:new 0 0 48 48;"
   xml:space="preserve"
   id="svg2"
   inkscape:version="0.91 r13725"
   sodipodi:docname="facebook.svg"
   inkscape:export-filename="C:\Users\Brandon\Documents\GitHub\MUGeeksandGadgets.github.io\contents\socialIcons\facebook.png"
   inkscape:export-xdpi="960.03998"
   inkscape:export-ydpi="960.03998"><metadata
     id="metadata22"><rdf:RDF><cc:Work
         rdf:about=""><dc:format>image/svg+xml</dc:format><dc:type
           rdf:resource="http://purl.org/dc/dcmitype/StillImage" /></cc:Work></rdf:RDF></metadata><defs
     id="defs20" /><sodipodi:namedview
     pagecolor="#ffffff"
     bordercolor="#666666"
     borderopacity="1"
     objecttolerance="10"
     gridtolerance="10"
     guidetolerance="10"
     inkscape:pageopacity="0"
     inkscape:pageshadow="2"
     inkscape:window-width="690"
     inkscape:window-height="480"
     id="namedview18"
     showgrid="false"
     inkscape:zoom="4.9166667"
     inkscape:cx="24"
     inkscape:cy="24"
     inkscape:window-x="0"
     inkscape:window-y="0"
     inkscape:window-maximized="0"
     inkscape:current-layer="svg2" /><g
     id="Layer_643"><g
       id="g5"><g
         id="g7"><path
           style="fill:#3C5B9B;"
           d="M31.649,2c2.805,0,6.247,1.979,7.649,4.4l7.649,13.199c1.402,2.423,1.402,6.381,0,8.802     L39.299,41.6c-1.402,2.421-4.845,4.4-7.649,4.4H16.351c-2.805,0-6.247-1.979-7.649-4.4L1.052,28.401     c-1.402-2.421-1.402-6.379,0-8.802L8.701,6.4C10.104,3.979,13.546,2,16.351,2H31.649z"
           id="path9" /><path
           style="fill:#3C5B9B;"
           d="M31.649,2c2.805,0,6.247,1.979,7.649,4.4l7.649,13.199c1.402,2.423,1.402,6.381,0,8.802     L39.299,41.6c-1.402,2.421-4.845,4.4-7.649,4.4H16.351c-2.805,0-6.247-1.979-7.649-4.4L1.052,28.401     c-1.402-2.421-1.402-6.379,0-8.802L8.701,6.4C10.104,3.979,13.546,2,16.351,2H31.649z"
           id="path11" /></g><g
         id="g13"><path
           style="fill:#FFFFFF;"
           d="M20,39h6c0,0,0-8.282,0-15h4.453L31,18h-4.768v-2.399c0-1.169,0.779-1.441,1.326-1.441     c0.547,0,3.366,0,3.366,0V9.019L26.289,9c-5.145,0-6.314,3.834-6.314,6.288V18H17v6h3C20,30.799,20,39,20,39z"
           id="path15" /></g></g></g><g
     id="Layer_1" /></svg>
