<?xml version="1.0" encoding="UTF-8" standalone="no"?>
<!-- Generator: Adobe Illustrator 18.0.0, SVG Export Plug-In . SVG Version: 6.00 Build 0)  -->

<svg
   xmlns:dc="http://purl.org/dc/elements/1.1/"
   xmlns:cc="http://creativecommons.org/ns#"
   xmlns:rdf="http://www.w3.org/1999/02/22-rdf-syntax-ns#"
   xmlns:svg="http://www.w3.org/2000/svg"
   xmlns="http://www.w3.org/2000/svg"
   xmlns:sodipodi="http://sodipodi.sourceforge.net/DTD/sodipodi-0.dtd"
   xmlns:inkscape="http://www.inkscape.org/namespaces/inkscape"
   version="1.1"
   x="0px"
   y="0px"
   viewBox="0 0 48 48"
   style="enable-background:new 0 0 48 48;"
   xml:space="preserve"
   id="svg2"
   inkscape:version="0.91 r13725"
   sodipodi:docname="form.svg"
   inkscape:export-filename="C:\Users\Brandon\Documents\GitHub\MUGeeksandGadgets.github.io\contents\socialIcons\form.png"
   inkscape:export-xdpi="960.03998"
   inkscape:export-ydpi="960.03998"><metadata
     id="metadata30"><rdf:RDF><cc:Work
         rdf:about=""><dc:format>image/svg+xml</dc:format><dc:type
           rdf:resource="http://purl.org/dc/dcmitype/StillImage" /></cc:Work></rdf:RDF></metadata><defs
     id="defs28" /><sodipodi:namedview
     pagecolor="#ffffff"
     bordercolor="#666666"
     borderopacity="1"
     objecttolerance="10"
     gridtolerance="10"
     guidetolerance="10"
     inkscape:pageopacity="0"
     inkscape:pageshadow="2"
     inkscape:window-width="690"
     inkscape:window-height="480"
     id="namedview26"
     showgrid="false"
     inkscape:zoom="4.9166667"
     inkscape:cx="24"
     inkscape:cy="24"
     inkscape:window-x="0"
     inkscape:window-y="0"
     inkscape:window-maximized="0"
     inkscape:current-layer="svg2" /><g
     id="Layer_581"><g
       id="g5"><g
         id="g7"><path
           style="fill:#669C41;"
           d="M31.649,2c2.805,0,6.246,1.979,7.648,4.4l7.65,13.199c1.402,2.421,1.402,6.381,0,8.802     L39.298,41.6c-1.402,2.421-4.844,4.4-7.648,4.4H16.351c-2.805,0-6.248-1.979-7.65-4.4L1.052,28.401     c-1.402-2.421-1.402-6.381,0-8.802L8.7,6.4c1.402-2.421,4.846-4.4,7.65-4.4H31.649z"
           id="path9" /><path
           style="fill:#669C41;"
           d="M31.649,2c2.805,0,6.246,1.979,7.648,4.4l7.65,13.199c1.402,2.421,1.402,6.381,0,8.802     L39.298,41.6c-1.402,2.421-4.844,4.4-7.648,4.4H16.351c-2.805,0-6.248-1.979-7.65-4.4L1.052,28.401     c-1.402-2.421-1.402-6.381,0-8.802L8.7,6.4c1.402-2.421,4.846-4.4,7.65-4.4H31.649z"
           id="path11" /></g><g
         id="g13"><path
           style="fill:#FFFFFF;"
           d="M37.041,18.099c-0.047-0.038-0.09-0.054-0.133-0.072v-7.505c0-0.219-0.176-0.397-0.387-0.397     h-9.578c-0.025-0.028-0.043-0.056-0.08-0.086l-2.369-1.875c-0.273-0.217-0.719-0.217-0.992,0l-2.367,1.875     c-0.039,0.03-0.057,0.058-0.08,0.086h-9.56c-0.211,0-0.385,0.178-0.385,0.397v7.497c-0.049,0.016-0.098,0.038-0.152,0.08     l-1.463,1.158C9.223,19.472,9,19.938,9,20.291v17.066C9,37.711,9.281,38,9.623,38h28.75C38.719,38,39,37.711,39,37.357V20.291     c0-0.353-0.223-0.819-0.496-1.035L37.041,18.099z M34.846,22.839c0,0.219-0.152,0.482-0.34,0.584l-10.16,5.62     c-0.185,0.102-0.492,0.102-0.678,0l-10.158-5.62c-0.186-0.102-0.338-0.365-0.338-0.584V12.226c0-0.219,0.172-0.397,0.383-0.397     h20.904c0.211,0,0.387,0.178,0.387,0.397V22.839z"
           id="path15" /><rect
           x="15.473"
           y="15.225"
           style="fill:#FFFFFF;"
           width="6"
           height="6.167"
           id="rect17" /><rect
           x="23.209"
           y="15.225"
           style="fill:#FFFFFF;"
           width="10.158"
           height="1.137"
           id="rect19" /><rect
           x="23.209"
           y="17.538"
           style="fill:#FFFFFF;"
           width="10.158"
           height="1.136"
           id="rect21" /><rect
           x="23.209"
           y="19.85"
           style="fill:#FFFFFF;"
           width="4.148"
           height="1.138"
           id="rect23" /></g></g></g><g
     id="Layer_1" /></svg>
